<svg width="1024" height="1024" xmlns="http://www.w3.org/2000/svg" class="icon">
 <defs>
  <style type="text/css"/>
 </defs>
 <g>
  <title>background</title>
  <rect fill="none" id="canvas_background" height="402" width="582" y="-1" x="-1"/>
 </g>
 <g>
  <title>Layer 1</title>
  <path id="svg_1" fill="#009ddd" d="m276.053333,532.48l7.253334,0a32,32 0 0 0 0,-64l-7.253334,0a32,32 0 1 0 0,64zm231.68,0l7.253334,0a32,32 0 0 0 0,-64l-7.253334,0a32,32 0 1 0 0,64zm231.253334,0l7.253333,0a32,32 0 0 0 0,-64l-7.253333,0a32,32 0 0 0 0,64zm-462.933334,150.186667l7.253334,0a32,32 0 1 0 0,-64l-7.253334,0a32,32 0 1 0 0,64zm231.68,0l7.253334,0a32,32 0 0 0 0,-64l-7.253334,0a32,32 0 1 0 0,64zm231.253334,0l7.253333,0a32,32 0 0 0 0,-64l-7.253333,0a32,32 0 1 0 0,64zm-462.933334,152.32l7.253334,0a32,32 0 1 0 0,-64l-7.253334,0a32,32 0 1 0 0,64zm231.68,0l7.253334,0a32,32 0 0 0 0,-64l-7.253334,0a32,32 0 0 0 0,64zm231.253334,0l7.253333,0a32,32 0 0 0 0,-64l-7.253333,0a32,32 0 0 0 0,64z"/>
  <path stroke="null" id="svg_2" fill="#989898" d="m989.049886,93.119088l-118.720282,0l0,-64.368618a35.616084,34.483188 0 0 0 -71.232169,0l0,64.368618l-569.857351,0l0,-64.368618a35.616084,34.483188 0 0 0 -71.232169,0l0,64.368618l-122.044449,0a35.616084,34.483188 0 0 0 -35.616084,34.483188l0,859.780827a35.616084,34.483188 0 0 0 35.616084,34.483188l953.086419,0a35.616084,34.483188 0 0 0 35.616084,-34.483188l0,-862.079706a35.616084,34.483188 0 0 0 -35.616084,-32.184309zm-34.191441,859.780827l-883.278893,0l0,-611.501872l883.278893,0l0,611.501872zm0,-680.468248l-883.278893,0l0,-112.645081l84.52884,0l0,62.069739a35.616084,34.483188 0 0 0 73.131694,0l0,-62.069739l569.857351,0l0,62.069739a35.616084,34.483188 0 0 0 71.232169,0l0,-62.069739l84.528841,0l0,112.645081z"/>
 </g>
</svg>