<svg width="1024" height="1024" xmlns="http://www.w3.org/2000/svg" class="icon">
 <defs>
  <style type="text/css"/>
 </defs>
 <g>
  <title>background</title>
  <rect fill="none" id="canvas_background" height="402" width="582" y="-1" x="-1"/>
 </g>
 <g>
  <title>Layer 1</title>
  <path stroke="null" id="svg_1" fill="#FFFFFF" d="m896.639748,949.77771l-767.057242,0c-34.072354,0 -61.693612,-29.773156 -61.693612,-66.499995l0,-753.666615c0,-36.726839 27.621258,-66.499995 61.693612,-66.499995l767.057242,0c34.072354,0 61.693612,29.773156 61.693612,66.499995l0,753.666615c0,36.726839 -27.621258,66.499995 -61.693612,66.499995z"/>
  <path stroke-width="NaN" stroke="null" id="svg_3" class="selected" fill="#BBBBBB" d="m67.893261,639.965l454.005082,0l0,63.919l-454.005082,0l0,-63.919zm-0.233367,127.837l593.744106,0l0,63.919l-593.744106,0l0,-63.919z"/>
  <path stroke-width="NaN" stroke="null" id="svg_4" class="selected" fill="#BBBBBB" d="m945,911.649l0,-219.182c0,-19.878 -16.114,-35.991 -35.991,-35.991l-0.727,0c-19.129,0 -34.765,14.925 -35.916,33.764c-1.151,-18.839 -16.787,-33.764 -35.916,-33.764l-0.727,0c-19.877,0 -35.991,16.114 -35.991,35.991c0,-19.877 -16.114,-35.991 -35.991,-35.991l-0.727,0c-15.993,0 -29.544,10.436 -34.231,24.867l0,-82.094c0,-28.74 -16.113,-52.039 -35.991,-52.039l-0.727,0c-19.878,0 -35.992,23.299 -35.992,52.039l0,240.418c0,39.755 32.228,71.983 71.983,71.983l0.727,0"/>
  <path id="svg_7" fill="#FFFFFF" d="m216.777796,209.701603c-5.523,0 -10,-4.477 -10,-10l0,-8.362c0,-5.523 4.477,-10 10,-10s10,4.477 10,10l0,8.362c0,5.522 -4.477,10 -10,10zm0,-43.146c-5.523,0 -10,-4.477 -10,-10l0,-54.386c0,-5.523 4.477,-10 10,-10s10,4.477 10,10l0,54.386c0,5.523 -4.477,10 -10,10z"/>
  <path stroke="null" id="svg_2" fill="#009ddd" d="m201.035914,408.389221l24.663388,48.101408l55.150363,7.712927l-39.906875,37.442131l9.42084,52.867986l-49.327715,-24.960818l-49.327715,24.960818l9.42084,-52.867986l-39.906875,-37.442131l55.150363,-7.712927l24.663388,-48.101408zm163.383442,0l24.663388,48.101408l55.150363,7.712927l-39.906875,37.442131l9.42084,52.867986l-49.327715,-24.960818l-49.327715,24.960818l9.42084,-52.867986l-39.906875,-37.442131l55.150363,-7.712927l24.663388,-48.101408zm326.766884,0l24.663388,48.101408l55.150363,7.712927l-39.906875,37.442131l9.42084,52.867986l-49.327715,-24.960818l-49.327715,24.960818l9.42084,-52.867986l-39.906875,-37.442131l55.150363,-7.712927l24.663388,-48.101408zm-163.383442,0l24.663388,48.101408l55.150363,7.712927l-39.906875,37.442131l9.42084,52.867986l-49.327715,-24.960818l-49.327715,24.960818l9.42084,-52.867986l-39.906875,-37.442131l55.150363,-7.712927l24.663388,-48.101408z"/>
  <path id="svg_14" d="m890.888598,401.895935l173.554996,-26.340679" opacity="0.5" fill-opacity="null" stroke-opacity="null" stroke-width="null" stroke="null" fill="#FFFFFF"/>
  <line stroke="null" stroke-linecap="null" stroke-linejoin="null" id="svg_15" y2="70.785078" x2="1015.332973" y1="35.22955" x1="4.222657" fill-opacity="null" stroke-opacity="null" stroke-width="NaN" fill="none"/>
  <rect stroke="null" id="svg_16" height="1035.554789" width="66.666619" y="-6.992621" x="-0.221832" stroke-width="NaN" fill="#999999"/>
  <rect stroke="null" id="svg_17" height="68.888836" width="1019.999311" y="-0.325978" x="6.444832" stroke-opacity="null" stroke-width="NaN" fill="#999999"/>
  <path stroke="null" id="svg_5" fill="#009ddd" d="m443.278557,63.517949l0,244.90208c0,8.210131 -7.95629,13.551357 -14.721171,9.882647l-115.986831,-62.903836l-113.97334,62.751387c-6.767933,3.726154 -14.776112,-1.612862 -14.776112,-9.852821l0,-246.731463"/>
  <rect id="svg_18" height="24.444426" width="71.111056" y="35.22955" x="679.777649" stroke-opacity="null" stroke-width="NaN" stroke="null" fill="#999999"/>
  <rect id="svg_19" height="15.555544" width="93.333262" y="41.896211" x="446.444495" stroke-opacity="null" stroke-width="NaN" stroke="null" fill="#999999"/>
  <rect stroke="null" id="svg_20" height="1035.554789" width="66.666619" y="-4.7704" x="957.555207" stroke-opacity="null" stroke-width="NaN" fill="#999999"/>
  <rect stroke="null" id="svg_21" height="68.888836" width="1019.999311" y="955.228831" x="4.222611" stroke-opacity="null" stroke-width="NaN" fill="#999999"/>
  <ellipse ry="42.22219" rx="11.111103" id="svg_22" cy="157.451678" cx="246.444648" fill-opacity="null" stroke-opacity="null" stroke-width="null" stroke="null" fill="#FFFFFF"/>
  <ellipse stroke="null" ry="14.444433" rx="6.666662" id="svg_23" cy="234.118286" cx="250.889089" fill-opacity="null" stroke-opacity="null" stroke-width="null" fill="#009ddd"/>
  <ellipse stroke="null" ry="9.999992" rx="13.333326" id="svg_24" cy="229.673845" cx="246.444653" fill-opacity="null" stroke-opacity="null" stroke-width="null" fill="#FFFFFF"/>
 </g>
</svg>