<?xml version="1.0" standalone="no"?><!DOCTYPE svg PUBLIC "-//W3C//DTD SVG 1.1//EN" "http://www.w3.org/Graphics/SVG/1.1/DTD/svg11.dtd"><svg t="1572941479801" class="icon" viewBox="0 0 1024 1024" version="1.1" xmlns="http://www.w3.org/2000/svg" p-id="3297" xmlns:xlink="http://www.w3.org/1999/xlink" width="200" height="200"><defs><style type="text/css"></style></defs><path d="M937.660412 568.916081h-386.647514c-21.912756 0-39.064096 18.840875-39.064096 42.59676v369.85456c0 23.858281 17.15134 42.494364 39.064096 42.494364h386.647514c21.963954 0 39.115294-18.738479 39.115294-42.494364v-369.85456c0-23.755885-18.892073-42.59676-39.115294-42.59676z m-30.872411 385.213969h-325.005088v-315.379858h325.005088v315.379858zM512 42.497948c0-23.755885-17.15134-42.494364-39.115294-42.494364H86.185994C64.375634 0.003584 47.224294 18.742062 47.224294 42.497948v369.956956c-0.102396 23.858281 18.636083 42.59676 38.9617 42.596761h386.647514c21.963954 0 39.115294-18.840875 39.115294-42.596761V42.497948zM388.10077 942.047315c-130.862162-11.775547-231.005506-98.095423-238.582814-240.579538h59.236119c10.64919 0 16.89535-11.877943 10.956378-20.581607l-97.737037-145.402402a13.311488 13.311488 0 0 0-21.912756 0L2.272425 680.937368a13.209091 13.209091 0 0 0 11.007576 20.581608h60.720862c6.041367 185.336865 137.722698 305.498638 306.369005 322.393987 21.912756 1.689535 42.289572-17.048944 42.289572-40.958423a40.702433 40.702433 0 0 0-34.55867-40.856027zM1010.668801 281.592743h-64.765506C922.864182 120.216556 799.579328 15.209398 643.578934 0.10598c-21.81036-1.689535-42.187176 17.048944-42.187176 40.958423 1.535941 20.428014 15.564201 39.166492 34.30268 40.856027 116.731506 11.775547 210.321503 81.148876 233.104625 199.672313h-53.50194c-10.64919 0-16.89535 11.775547-11.007576 20.581607l97.788235 145.402402c2.508703 3.737456 6.655744 5.631783 10.597992 5.785378v0.102396a13.51628 13.51628 0 0 0 11.314764-5.836576l97.634641-145.351204a13.260289 13.260289 0 0 0-10.956378-20.684003z" p-id="3298"></path></svg>