<svg width="1024" height="1024" xmlns="http://www.w3.org/2000/svg" class="icon">
 <defs>
  <style type="text/css"/>
 </defs>
 <g>
  <title>background</title>
  <rect fill="none" id="canvas_background" height="402" width="582" y="-1" x="-1"/>
 </g>
 <g>
  <title>Layer 1</title>
  <path stroke="null" id="svg_1" class="selected" fill="#989898" d="m1023.438637,419.210533l-1021.210588,0l0,-416.701789l1021.210588,0l0,416.701789zm-961.139384,-69.450302l901.06818,0l0,-277.801197l-901.06818,0l0,277.801197z"/>
  <path stroke="null" id="svg_2" class="selected" fill="#989898" d="m1020.105234,1019.824561l-1017.87724,0l0,-689.67314l1017.87724,0l0,689.67314zm-958.002115,-62.697561l898.12699,0l0,-564.278017l-898.12699,0l0,564.278017zm718.501595,-677.133626l-101.787733,-106.585845l41.912597,-43.888295l59.875136,62.697561l59.875125,-62.697561l41.912597,43.888295l-101.787722,106.585845z"/>
  <path id="svg_3" fill="#009ddd" d="m272.417547,818.140364l485.05263,0l0,-53.89473l-485.05263,0l0,53.89473zm0,-107.78947l485.05263,0l0,-53.89474l-485.05263,0l0,53.89474zm0,-161.68421l0,53.89474l485.05263,0l0,-53.89474l-485.05263,0z"/>
 </g>
</svg>